<svg width="245" height="161" viewBox="0 0 245 161" fill="none" xmlns="http://www.w3.org/2000/svg">
<g clip-path="url(#clip0_431_40)">
<rect width="244.57" height="160.781" transform="translate(0.0151367 0.0498047)" fill="white"/>
<path d="M226.64 41.9676C223.697 51.4555 215.105 58.0972 206.141 63.7392C204.89 64.5271 203.638 65.2969 202.386 66.0486C202.377 66.052 202.368 66.0594 202.36 66.0629C202.3 66.0989 202.239 66.1349 202.183 66.1711C201.925 66.326 201.666 66.4809 201.41 66.634L201.551 66.6927C201.551 66.6927 201.689 66.7611 201.538 66.7037C201.493 66.6862 201.445 66.6705 201.4 66.6529C196.193 64.7011 190.894 62.6055 186.903 58.9493C182.764 55.1524 180.345 49.1973 182.586 44.2094C182.881 43.5561 183.253 42.9353 183.696 42.3586C183.878 42.1168 184.073 41.8854 184.277 41.6583C185.514 40.2558 187.13 39.1847 188.959 38.5551C190.789 37.9256 192.766 37.7602 194.687 38.0761C196.608 38.392 198.404 39.1777 199.89 40.3524C201.376 41.5271 202.498 43.0485 203.142 44.7601C203.8 39.062 198.745 34.2889 193.879 30.7672C189.012 27.2471 183.481 23.4138 182.54 17.7473C182.015 14.5946 183.194 11.5392 185.343 9.08651C185.41 9.01199 185.476 8.93757 185.545 8.86509C188.161 6.00841 191.84 4.17401 195.847 3.72831C203.311 3.00741 210.561 6.67898 215.983 11.5018C224.71 19.2613 229.986 31.1799 226.64 41.9676Z" fill="#F2F2F2"/>
<path d="M212.611 29.5579C214.044 31.6291 215.143 33.8834 215.876 36.2495C216.495 38.3644 216.771 40.5534 216.694 42.744C216.56 47.2467 215.069 51.6467 212.723 55.5656C210.909 58.5371 208.697 61.2835 206.141 63.7395C204.89 64.5275 203.638 65.2973 202.386 66.049C202.377 66.0524 202.368 66.0598 202.36 66.0633C202.3 66.0993 202.239 66.1353 202.183 66.1715C201.925 66.3264 201.666 66.4813 201.41 66.6343C201.41 66.6343 201.689 66.7615 201.538 66.7041C201.493 66.6866 201.445 66.6709 201.4 66.6533C201.867 63.0973 201.41 59.4892 200.067 56.1313C198.724 52.7733 196.535 49.7634 193.683 47.3537C190.824 44.9807 187.402 43.2693 183.696 42.359C183.878 42.1172 184.073 41.8858 184.277 41.6587C185.709 42.0317 187.102 42.5216 188.44 43.1227C193.225 45.258 197.143 48.7684 199.613 53.1341C201.831 57.0983 202.785 61.5682 202.364 66.0189C202.578 65.8387 202.792 65.6546 203 65.4723C206.957 62.0439 210.471 58.1086 212.85 53.567C214.913 49.7209 215.928 45.4622 215.803 41.1661C215.609 36.4816 213.601 32.1426 210.693 28.3653C207.578 24.3226 203.673 20.7459 199.503 17.6474C195.232 14.468 190.558 11.7864 185.586 9.66218C185.474 9.61355 185.386 9.52671 185.341 9.41964C185.296 9.31256 185.296 9.19345 185.343 9.08693C185.376 8.99134 185.449 8.91177 185.545 8.86551C185.594 8.84573 185.648 8.83656 185.701 8.83868C185.755 8.8408 185.807 8.85415 185.855 8.87775C186.469 9.1404 187.078 9.40665 187.683 9.6844C192.72 11.9981 197.428 14.8845 201.699 18.277C205.825 21.546 209.709 25.2808 212.611 29.5579Z" fill="white"/>
<path d="M178.614 96.2939C184.642 96.2939 189.529 91.7523 189.529 86.1499C189.529 80.5475 184.642 76.0059 178.614 76.0059C172.586 76.0059 167.699 80.5475 167.699 86.1499C167.699 91.7523 172.586 96.2939 178.614 96.2939Z" fill="#2F2E41"/>
<path d="M170.094 80.6808C171.858 79.0416 172.215 76.7161 170.893 75.4867C169.57 74.2572 167.067 74.5894 165.304 76.2287C163.54 77.8679 163.182 80.1934 164.505 81.4229C165.828 82.6523 168.33 82.3201 170.094 80.6808Z" fill="#2F2E41"/>
<path d="M189.99 77.4594C190.725 75.8605 189.461 73.826 187.167 72.9154C184.873 72.0047 182.418 72.5627 181.683 74.1616C180.948 75.7605 182.212 77.7949 184.506 78.7055C186.8 79.6162 189.255 79.0583 189.99 77.4594Z" fill="#2F2E41"/>
<path d="M201.729 129.705C199.854 130.916 197.872 131.978 195.805 132.88L195.499 132.378L192.574 127.606L192.318 127.187L190.821 124.747L190.818 124.744L186.093 117.029L183.665 113.069L190.877 108.368L193.682 113.88L195.203 116.874L201.464 129.18L201.729 129.705Z" fill="#A0616A"/>
<path d="M195.286 111.093L194.382 109.776L190.383 103.946C189.837 102.813 188.83 101.928 187.583 101.483C186.336 101.039 184.95 101.073 183.729 101.576C182.508 102.08 181.552 103.012 181.07 104.17C180.588 105.327 180.619 106.615 181.156 107.752L183.628 115.936C183.698 116.168 183.82 116.383 183.986 116.567C184.153 116.751 184.36 116.9 184.593 117.003C184.827 117.107 185.082 117.163 185.34 117.167C185.599 117.172 185.856 117.125 186.093 117.029C186.103 117.026 186.109 117.023 186.118 117.02L193.682 113.88L194.496 113.542C194.734 113.442 194.946 113.296 195.118 113.114C195.29 112.932 195.418 112.717 195.492 112.485C195.567 112.252 195.588 112.008 195.552 111.768C195.517 111.528 195.426 111.297 195.286 111.093H195.286Z" fill="#6C63FF"/>
<path d="M173.556 111.276L171.451 115.693L170.995 116.653L163.203 133.012L162.953 133.537C160.843 132.719 158.811 131.737 156.88 130.6L157.09 130.049L163.45 113.373L165.011 109.277L168.43 110.077L173.556 111.276Z" fill="#A0616A"/>
<path d="M187.088 92.7014C189.542 88.5294 187.892 83.2984 183.403 81.0178C178.914 78.7372 173.286 80.2704 170.832 84.4425C168.378 88.6145 170.028 93.8454 174.517 96.126C179.006 98.4067 184.634 96.8734 187.088 92.7014Z" fill="#A0616A"/>
<path d="M195.107 113.126C194.973 111.991 194.73 110.87 194.382 109.776C193.331 106.482 191.323 103.52 188.578 101.218C187.569 100.377 186.261 99.9122 184.905 99.9136H171.855C170.917 99.9113 169.995 100.133 169.175 100.556C168.355 100.98 167.666 101.591 167.173 102.333C166.68 103.074 166.4 103.921 166.359 104.792C166.318 105.662 166.518 106.528 166.94 107.307L168.43 110.077L171.451 115.693L172.176 117.038L175.407 123.046L175.663 123.522L192.064 127.715L192.135 127.568C192.197 127.439 192.259 127.313 192.317 127.187C192.407 126.995 192.496 126.808 192.58 126.619C194.234 122.974 195.015 119.731 195.203 116.874C195.287 115.624 195.255 114.37 195.107 113.126V113.126Z" fill="#6C63FF"/>
<path d="M174.222 101.485C173.015 100.96 171.633 100.9 170.379 101.319C169.124 101.739 168.1 102.603 167.529 103.722L166.366 105.354L162.478 110.809C162.333 111.011 162.238 111.24 162.197 111.48C162.157 111.72 162.172 111.965 162.243 112.199C162.313 112.433 162.437 112.649 162.606 112.835C162.775 113.02 162.985 113.169 163.221 113.272L163.45 113.373L170.995 116.654L171.531 116.886C171.734 116.974 171.953 117.026 172.176 117.038C172.475 117.06 172.774 117.011 173.047 116.897C173.285 116.798 173.497 116.653 173.669 116.471C173.841 116.289 173.969 116.074 174.043 115.842L176.654 107.723C177.22 106.596 177.282 105.306 176.827 104.137C176.371 102.967 175.434 102.014 174.222 101.485V101.485Z" fill="#6C63FF"/>
<path d="M192.58 126.619C192.525 126.44 192.436 126.272 192.318 126.123C191.895 125.597 191.391 125.133 190.821 124.746L190.818 124.743C188.834 123.347 184.884 121.715 177.265 121.672H177.253C176.903 121.672 176.561 121.765 176.267 121.94C175.974 122.116 175.74 122.366 175.595 122.661L175.407 123.046L174.194 125.523C174.092 125.737 173.928 125.92 173.722 126.054C172.627 126.774 169.14 129.384 167.338 134.368C167.273 134.546 167.211 134.726 167.153 134.913C174.858 137.005 183.056 136.936 190.719 134.715L190.889 134.064L192.574 127.606L192.602 127.499C192.678 127.209 192.67 126.906 192.58 126.619V126.619Z" fill="#2F2E41"/>
<path d="M169.226 83.1565C171.343 84.5125 173.856 85.2341 176.427 85.2246C175.51 85.8155 174.465 86.2147 173.366 86.3946C176.785 87.076 180.317 87.0945 183.744 86.4488C184.505 86.3353 185.24 86.1007 185.916 85.7554C186.253 85.5806 186.546 85.3418 186.777 85.0547C187.008 84.7675 187.172 84.4384 187.257 84.0888C187.485 82.88 186.471 81.7818 185.418 81.0416C183.805 79.9258 181.946 79.1569 179.974 78.7908C178.003 78.4247 175.969 78.4704 174.018 78.9246C172.745 79.2305 171.469 79.7474 170.642 80.6978C169.815 81.6482 169.57 83.1134 170.358 84.092L169.226 83.1565Z" fill="#2F2E41"/>
<path d="M182.005 4.92676H14.6556V5.55012H182.005V4.92676Z" fill="#3F3D56"/>
<path d="M20.3569 2.73285C21.4683 2.73285 22.3692 1.89558 22.3692 0.862761C22.3692 -0.170058 21.4683 -1.00732 20.3569 -1.00732C19.2456 -1.00732 18.3447 -0.170058 18.3447 0.862761C18.3447 1.89558 19.2456 2.73285 20.3569 2.73285Z" fill="#3F3D56"/>
<path d="M26.1421 2.73285C27.2534 2.73285 28.1543 1.89558 28.1543 0.862761C28.1543 -0.170058 27.2534 -1.00732 26.1421 -1.00732C25.0308 -1.00732 24.1299 -0.170058 24.1299 0.862761C24.1299 1.89558 25.0308 2.73285 26.1421 2.73285Z" fill="#3F3D56"/>
<path d="M31.9271 2.73285C33.0385 2.73285 33.9394 1.89558 33.9394 0.862761C33.9394 -0.170058 33.0385 -1.00732 31.9271 -1.00732C30.8158 -1.00732 29.9149 -0.170058 29.9149 0.862761C29.9149 1.89558 30.8158 2.73285 31.9271 2.73285Z" fill="#3F3D56"/>
<path d="M145.762 41.1031H50.7804C50.4977 41.1031 50.2178 41.0513 49.9566 40.9508C49.6955 40.8503 49.4582 40.7029 49.2583 40.5171C49.0584 40.3314 48.8998 40.1108 48.7917 39.8681C48.6835 39.6254 48.6278 39.3653 48.6278 39.1026C48.6278 38.8398 48.6835 38.5797 48.7917 38.337C48.8998 38.0943 49.0584 37.8737 49.2583 37.688C49.4582 37.5022 49.6955 37.3549 49.9566 37.2543C50.2178 37.1538 50.4977 37.1021 50.7804 37.1021H145.762C146.045 37.1021 146.325 37.1538 146.586 37.2543C146.847 37.3549 147.084 37.5022 147.284 37.688C147.484 37.8737 147.643 38.0943 147.751 38.337C147.859 38.5797 147.915 38.8398 147.915 39.1026C147.915 39.3653 147.859 39.6254 147.751 39.8681C147.643 40.1108 147.484 40.3314 147.284 40.5171C147.084 40.7029 146.847 40.8503 146.586 40.9508C146.325 41.0513 146.045 41.1031 145.762 41.1031V41.1031Z" fill="#CCCCCC"/>
<path d="M145.762 62.6084H50.7804C50.4977 62.6084 50.2178 62.5567 49.9566 62.4562C49.6955 62.3556 49.4582 62.2083 49.2583 62.0225C49.0584 61.8367 48.8998 61.6162 48.7917 61.3735C48.6835 61.1308 48.6278 60.8706 48.6278 60.6079C48.6278 60.3452 48.6835 60.0851 48.7917 59.8424C48.8998 59.5997 49.0584 59.3791 49.2583 59.1934C49.4582 59.0076 49.6955 58.8602 49.9566 58.7597C50.2178 58.6592 50.4977 58.6074 50.7804 58.6074H145.762C146.045 58.6074 146.325 58.6592 146.586 58.7597C146.847 58.8602 147.084 59.0076 147.284 59.1934C147.484 59.3791 147.643 59.5997 147.751 59.8424C147.859 60.0851 147.915 60.3452 147.915 60.6079C147.915 60.8706 147.859 61.1308 147.751 61.3735C147.643 61.6162 147.484 61.8367 147.284 62.0225C147.084 62.2083 146.847 62.3556 146.586 62.4562C146.325 62.5567 146.045 62.6084 145.762 62.6084V62.6084Z" fill="#E6E6E6"/>
<path d="M145.762 70.8604H50.7804C50.2095 70.8604 49.662 70.6496 49.2583 70.2745C48.8546 69.8993 48.6278 69.3905 48.6278 68.8599C48.6278 68.3293 48.8546 67.8205 49.2583 67.4453C49.662 67.0701 50.2095 66.8594 50.7804 66.8594H145.762C146.333 66.8594 146.88 67.0701 147.284 67.4453C147.688 67.8205 147.915 68.3293 147.915 68.8599C147.915 69.3905 147.688 69.8993 147.284 70.2745C146.88 70.6496 146.333 70.8604 145.762 70.8604Z" fill="#E6E6E6"/>
<path d="M130.29 32.6006H66.2518C65.6809 32.6006 65.1334 32.3899 64.7297 32.0147C64.326 31.6395 64.0992 31.1307 64.0992 30.6001C64.0992 30.0696 64.326 29.5607 64.7297 29.1855C65.1334 28.8104 65.6809 28.5996 66.2518 28.5996H130.29C130.861 28.5996 131.409 28.8104 131.812 29.1855C132.216 29.5607 132.443 30.0696 132.443 30.6001C132.443 31.1307 132.216 31.6395 131.812 32.0147C131.409 32.3899 130.861 32.6006 130.29 32.6006Z" fill="#CCCCCC"/>
<path d="M84.2658 54.3565H50.9011C50.6182 54.3568 50.338 54.3053 50.0766 54.2049C49.8151 54.1045 49.5775 53.9572 49.3774 53.7714C49.1772 53.5856 49.0184 53.365 48.9101 53.1221C48.8017 52.8792 48.746 52.6189 48.746 52.356C48.746 52.0931 48.8017 51.8327 48.9101 51.5899C49.0184 51.347 49.1772 51.1264 49.3774 50.9406C49.5775 50.7548 49.8151 50.6075 50.0766 50.5071C50.338 50.4067 50.6182 50.3552 50.9011 50.3555H84.2658C84.8367 50.3555 85.3842 50.5662 85.7879 50.9414C86.1915 51.3166 86.4183 51.8254 86.4183 52.356C86.4183 52.8866 86.1915 53.3954 85.7879 53.7706C85.3842 54.1457 84.8367 54.3565 84.2658 54.3565Z" fill="#E6E6E6"/>
<path d="M145.883 54.3565H112.518C112.235 54.3568 111.955 54.3053 111.694 54.2049C111.432 54.1045 111.194 53.9572 110.994 53.7714C110.794 53.5856 110.635 53.365 110.527 53.1221C110.419 52.8792 110.363 52.6189 110.363 52.356C110.363 52.0931 110.419 51.8327 110.527 51.5899C110.635 51.347 110.794 51.1264 110.994 50.9406C111.194 50.7548 111.432 50.6075 111.694 50.5071C111.955 50.4067 112.235 50.3552 112.518 50.3555H145.883C146.166 50.3552 146.446 50.4067 146.707 50.5071C146.969 50.6075 147.206 50.7548 147.406 50.9406C147.607 51.1264 147.765 51.347 147.874 51.5899C147.982 51.8327 148.038 52.0931 148.038 52.356C148.038 52.6189 147.982 52.8792 147.874 53.1221C147.765 53.365 147.607 53.5856 147.406 53.7714C147.206 53.9572 146.969 54.1045 146.707 54.2049C146.446 54.3053 146.166 54.3568 145.883 54.3565Z" fill="#E6E6E6"/>
<path d="M179.993 -3.81396H16.6658C16.0436 -3.81309 15.4471 -3.58278 15.0074 -3.1736C14.5677 -2.76442 14.3207 -2.20981 14.3206 -1.63152V101.224C14.3213 101.802 14.5687 102.356 15.0083 102.765C15.448 103.173 16.0441 103.403 16.6658 103.404H138.8C138.769 103.197 138.744 102.988 138.72 102.782H16.6658C16.2215 102.781 15.7956 102.617 15.4814 102.325C15.1672 102.033 14.9906 101.637 14.9902 101.224V-1.63152C14.9904 -2.04472 15.167 -2.44096 15.4811 -2.7334C15.7952 -3.02584 16.2212 -3.19062 16.6658 -3.19164H179.993C180.438 -3.19121 180.865 -3.0267 181.179 -2.73421C181.494 -2.44173 181.671 -2.04516 181.671 -1.63152V61.407C181.894 61.4213 182.119 61.4385 182.341 61.4586V-1.63152C182.341 -2.21027 182.093 -2.76523 181.653 -3.17445C181.213 -3.58368 180.616 -3.8137 179.993 -3.81396Z" fill="#3F3D56"/>
<path d="M138.8 103.404C138.769 103.198 138.744 102.988 138.72 102.782C138.713 102.75 138.71 102.722 138.707 102.69C138.618 101.936 138.553 101.174 138.513 100.404C138.343 101.067 138.19 101.732 138.053 102.4C138.062 102.498 138.072 102.592 138.084 102.69C138.087 102.722 138.09 102.75 138.096 102.782C138.121 102.988 138.146 103.198 138.177 103.404C138.263 104.044 138.368 104.675 138.491 105.303C138.494 105.277 138.498 105.254 138.501 105.228C138.587 104.623 138.686 104.021 138.803 103.418C138.801 103.414 138.799 103.409 138.8 103.404ZM182.341 60.8823C182.119 60.8622 181.894 60.845 181.671 60.8307C181.637 60.8278 181.607 60.8278 181.573 60.8249C180.585 60.7561 179.585 60.7217 178.579 60.7217C172.884 60.7233 167.252 61.8347 162.047 63.9841C156.842 66.1334 152.18 69.2731 148.361 73.2003C144.542 77.1276 141.652 81.7553 139.877 86.7849C138.101 91.8144 137.48 97.1339 138.053 102.4C138.062 102.498 138.072 102.592 138.084 102.69C138.087 102.722 138.09 102.75 138.096 102.782C138.121 102.988 138.146 103.198 138.177 103.404C138.263 104.044 138.368 104.675 138.491 105.303C139.717 111.529 142.597 117.373 146.868 122.303C151.14 127.234 156.669 131.095 162.953 133.537C163.595 133.783 164.243 134.019 164.9 134.234C165.332 134.38 165.764 134.515 166.202 134.644C166.517 134.738 166.835 134.827 167.153 134.913C167.603 135.037 168.06 135.154 168.52 135.263C174.16 136.608 180.046 136.808 185.776 135.849C191.507 134.889 196.948 132.794 201.729 129.705H201.732C207.154 126.226 211.587 121.576 214.649 116.154C217.711 110.732 219.311 104.701 219.312 98.5775C219.312 78.881 203.044 62.6518 182.341 60.8823ZM201.464 129.18C199.578 130.404 197.583 131.474 195.499 132.378C194.002 133.029 192.462 133.593 190.889 134.064C183.79 136.187 176.195 136.433 168.955 134.773C168.412 134.649 167.873 134.515 167.338 134.368C166.81 134.225 166.288 134.073 165.77 133.912C165.347 133.778 164.925 133.64 164.505 133.494C164.067 133.339 163.635 133.178 163.203 133.012C156.705 130.495 151.031 126.437 146.749 121.244C142.468 116.051 139.727 109.904 138.803 103.418C138.801 103.414 138.799 103.409 138.8 103.404C138.769 103.198 138.744 102.988 138.72 102.782C138.713 102.75 138.71 102.722 138.707 102.69C138.618 101.936 138.553 101.174 138.513 100.404C138.479 99.7992 138.463 99.1902 138.464 98.5775C138.475 88.6929 142.705 79.2163 150.226 72.2269C157.747 65.2375 167.944 61.3061 178.579 61.2953C179.585 61.2953 180.585 61.3297 181.573 61.3985C181.607 61.4014 181.637 61.4042 181.671 61.4071C181.894 61.4214 182.119 61.4386 182.341 61.4587C202.704 63.2253 218.695 79.1965 218.695 98.5775C218.694 104.592 217.127 110.518 214.126 115.847C211.125 121.176 206.781 125.751 201.464 129.18ZM164.505 133.494C164.067 133.339 163.635 133.178 163.203 133.012C156.705 130.495 151.031 126.437 146.749 121.244C142.468 116.051 139.727 109.904 138.803 103.418C138.686 104.021 138.587 104.623 138.501 105.228C138.498 105.254 138.494 105.277 138.491 105.303C139.717 111.529 142.597 117.373 146.868 122.303C151.14 127.234 156.669 131.095 162.953 133.537C163.595 133.783 164.243 134.019 164.9 134.234C164.764 133.99 164.631 133.743 164.505 133.494ZM181.573 60.8249C180.585 60.7561 179.585 60.7217 178.579 60.7217C172.884 60.7233 167.252 61.8347 162.047 63.9841C156.842 66.1334 152.18 69.2731 148.361 73.2003C144.542 77.1276 141.652 81.7553 139.877 86.7849C138.101 91.8144 137.48 97.1339 138.053 102.4C138.062 102.498 138.072 102.592 138.084 102.69C138.087 102.722 138.09 102.75 138.096 102.782H138.72C138.713 102.75 138.71 102.722 138.707 102.69C138.618 101.936 138.553 101.174 138.513 100.404C138.479 99.7992 138.463 99.1902 138.464 98.5775C138.475 88.6929 142.705 79.2163 150.226 72.2269C157.747 65.2375 167.944 61.3061 178.579 61.2953C179.585 61.2953 180.585 61.3297 181.573 61.3985C181.607 61.4014 181.637 61.4042 181.671 61.4071L181.671 60.8307C181.637 60.8278 181.607 60.8278 181.573 60.8249Z" fill="#3F3D56"/>
<path d="M211.689 70.4106C224.2 70.6092 224.198 87.9048 211.688 88.1017C199.178 87.9032 199.18 70.6075 211.689 70.4106Z" fill="#6C63FF"/>
<path d="M211.689 84.0729C211.511 84.0727 211.341 84.0071 211.216 83.8906C211.091 83.7741 211.02 83.6161 211.02 83.4513V80.1552C211.02 80.0818 210.988 80.0114 210.933 79.9594C210.877 79.9075 210.801 79.8782 210.722 79.8781H207.175C206.998 79.8781 206.828 79.8126 206.702 79.696C206.577 79.5794 206.506 79.4213 206.506 79.2564C206.506 79.0915 206.577 78.9334 206.702 78.8168C206.828 78.7002 206.998 78.6347 207.175 78.6347H210.722C210.801 78.6346 210.877 78.6054 210.933 78.5535C210.988 78.5016 211.02 78.4312 211.02 78.3577V75.0616C211.02 74.8967 211.09 74.7386 211.216 74.622C211.341 74.5054 211.511 74.4399 211.689 74.4399C211.866 74.4399 212.036 74.5054 212.162 74.622C212.287 74.7386 212.358 74.8967 212.358 75.0616V78.3577C212.358 78.4312 212.389 78.5016 212.445 78.5535C212.501 78.6054 212.577 78.6346 212.656 78.6347H216.202C216.38 78.6347 216.55 78.7002 216.675 78.8168C216.801 78.9334 216.871 79.0915 216.871 79.2564C216.871 79.4213 216.801 79.5794 216.675 79.696C216.55 79.8126 216.38 79.8781 216.202 79.8781H212.656C212.577 79.8782 212.501 79.9075 212.445 79.9594C212.389 80.0114 212.358 80.0818 212.358 80.1552V83.4512C212.357 83.616 212.287 83.774 212.162 83.8906C212.036 84.0071 211.866 84.0727 211.689 84.0729V84.0729Z" fill="white"/>
</g>
<defs>
<clipPath id="clip0_431_40">
<rect width="244.57" height="160.781" fill="white" transform="translate(0.0151367 0.0498047)"/>
</clipPath>
</defs>
</svg>
